<svg width="24" height="24" viewBox="0 0 24 24" fill="none" xmlns="http://www.w3.org/2000/svg">
<path d="M8.10144 12.0001H2.5774C2.2319 12.0001 1.94922 12.2828 1.94922 12.6283V13.8846C1.94922 14.2301 2.2319 14.5128 2.5774 14.5128H8.16034C8.78459 14.5128 9.36958 14.9408 9.47166 15.5572C9.60122 16.3424 8.9966 17.0255 8.23101 17.0255C7.67742 17.0255 7.20629 16.6643 7.03747 16.1657C6.95502 15.9184 6.69982 15.7692 6.4407 15.7692H5.15293C4.76817 15.7692 4.45801 16.1147 4.52868 16.4916C4.86632 18.223 6.39751 19.5383 8.22708 19.5383C10.4689 19.5383 12.2592 17.5713 11.9647 15.2745C11.7253 13.3743 10.0135 12.0001 8.10144 12.0001ZM2.5774 10.7438H15.7692C18.113 10.7438 19.9622 8.59224 19.4518 6.16198C19.1535 4.74072 18.0031 3.59037 16.5819 3.29198C14.4068 2.83655 12.4555 4.26959 12.0707 6.2562C11.9962 6.63311 12.3102 6.97468 12.6911 6.97468H13.9788C14.2419 6.97468 14.4932 6.82549 14.5756 6.57814C14.7444 6.07953 15.2156 5.71832 15.7692 5.71832C16.5308 5.71832 17.1394 6.40147 17.0098 7.18669C16.9077 7.80309 16.3267 8.23104 15.6985 8.23104H2.5774C2.2319 8.23104 1.94922 8.51372 1.94922 8.85922V10.1156C1.94922 10.4611 2.2319 10.7438 2.5774 10.7438ZM17.6537 12.0001H11.5172C12.2749 12.6518 12.8206 13.5234 13.0798 14.5128H17.6537C18.6941 14.5128 19.5382 15.3569 19.5382 16.3974C19.5382 17.4378 18.6941 18.2819 17.6537 18.2819C16.9509 18.2819 16.3463 17.8932 16.0204 17.3239C15.9066 17.1276 15.6788 17.0255 15.4511 17.0255H14.1241C13.6962 17.0255 13.3781 17.4496 13.5234 17.854C14.2223 19.8406 16.2913 21.1833 18.6038 20.6925C20.2214 20.351 21.5523 19.0593 21.9292 17.4456C22.6006 14.5717 20.4216 12.0001 17.6537 12.0001Z" fill="#444444" stroke="black" stroke-width="0.5"/>
</svg>
