<svg width="24" height="24" viewBox="0 0 24 24" fill="none" xmlns="http://www.w3.org/2000/svg">
<path d="M14.25 9.77649L11.4909 9.07841L11.225 11.771L9.76239 13.8652V17.4221L10.527 19.4831L15.6129 17.4221L16.5437 14.3971L14.25 9.77649Z" fill="#F4924C"/>
<path d="M7.57106 9.83472C7.68189 8.87048 6.42047 8.39847 5.87618 9.20553L5.87613 9.2055L5.87223 9.21148C5.23327 10.1887 4.61102 11.7305 4.61102 14.0058V14.0228L4.61217 14.0397C4.78627 16.6054 5.96519 18.3051 7.30386 19.3793C8.62628 20.4405 10.0996 20.8893 10.9109 20.9943L10.9118 20.9944C13.0955 21.273 15.5264 20.8778 17.2972 19.257L17.2997 19.2547C19.235 17.4589 19.95 14.5893 18.9047 12.0801C18.5298 11.1098 17.9203 10.3812 17.2694 9.76331C16.9445 9.4549 16.6041 9.16937 16.2768 8.89722C16.2495 8.87458 16.2224 8.85205 16.1954 8.8296C15.8938 8.57902 15.6057 8.33962 15.3342 8.09075C14.7444 7.55017 14.2732 6.9996 14.0046 6.31209C13.739 5.63221 13.6523 4.76761 13.9253 3.56848L13.9253 3.5683C14.107 2.76901 13.2477 2.1267 12.5359 2.55443C10.8963 3.52154 9.4705 4.98354 8.70588 6.8595C7.96236 8.68369 7.859 10.8638 8.74538 13.2943C7.58729 12.28 7.44985 10.9036 7.57106 9.83472ZM7.57106 9.83472C7.57104 9.83487 7.57103 9.83503 7.57101 9.83518L7.0743 9.77787L7.57111 9.83425C7.5711 9.8344 7.57108 9.83456 7.57106 9.83472Z" stroke="#811F1F"/>
<path d="M18.4407 12.2664C17.0887 8.75318 12.2753 8.56374 13.4377 3.45749C13.5238 3.07861 13.1191 2.78584 12.7919 2.98389C9.66618 4.82662 7.41874 8.52068 9.30452 13.36C9.45951 13.7561 8.99453 14.1264 8.6587 13.868C7.10013 12.6883 6.93653 10.992 7.0743 9.77787C7.12597 9.33011 6.54043 9.11483 6.29071 9.4851C5.70517 10.3806 5.11102 11.8273 5.11102 14.0058C5.43824 18.8279 9.51118 20.309 10.975 20.4984C13.0675 20.7653 15.3321 20.3779 16.9596 18.8882C18.7506 17.2263 19.4051 14.5741 18.4407 12.2664ZM10.4498 16.5977C11.6897 16.2963 12.3269 15.4008 12.4992 14.6086C12.7833 13.3772 11.6725 12.1717 12.4217 10.2256C12.7058 11.8359 15.2374 12.8433 15.2374 14.6C15.3063 16.7785 12.9469 18.6471 10.4498 16.5977Z" fill="#F44C4C"/>
</svg>
