<svg width="24" height="24" viewBox="0 0 24 24" fill="none" xmlns="http://www.w3.org/2000/svg">
<path d="M10.5496 3.51822L10.5494 3.51919C9.83441 6.11569 8.73754 7.80837 7.75108 9.33065C7.69952 9.41022 7.64826 9.48932 7.59738 9.56806C6.574 11.1516 5.66595 12.6361 5.66595 14.7804C5.66595 18.5286 8.45978 21.6363 12 21.6363C15.5403 21.6363 18.3341 18.5286 18.3341 14.7804C18.3341 12.6261 17.428 11.1483 16.4051 9.56968C16.3545 9.49175 16.3037 9.41345 16.2525 9.3347C15.2673 7.81842 14.1704 6.13031 13.4517 3.52311C13.261 2.78717 12.6518 2.37282 12.0204 2.3637C11.3804 2.35446 10.76 2.76034 10.5496 3.51822ZM12.0087 18.3447C12.0041 18.3497 12.0006 18.3517 11.9995 18.3522C10.2631 18.3519 8.78743 16.8179 8.78743 14.855C8.78743 14.8235 8.79906 14.8023 8.80908 14.7915C8.81317 14.7871 8.81635 14.7851 8.8178 14.7843C8.81925 14.7851 8.82243 14.7871 8.82652 14.7915C8.83655 14.8023 8.84817 14.8235 8.84817 14.855C8.84817 16.6698 10.2273 18.2099 11.9995 18.2101C12.0006 18.2107 12.0041 18.2126 12.0087 18.2176C12.0188 18.2284 12.0304 18.2496 12.0304 18.2812C12.0304 18.3127 12.0188 18.3339 12.0087 18.3447Z" fill="#479BFF" stroke="#2663AC"/>
</svg>
